<?xml version="1.0" encoding="UTF-8" standalone="no"?>
<!DOCTYPE svg PUBLIC "-//W3C//DTD SVG 1.1//EN"
 "http://www.w3.org/Graphics/SVG/1.1/DTD/svg11.dtd">
<!-- Generated by graphviz version 2.40.1 (20161225.0304)
 -->
<!-- Title: dependencies Pages: 1 -->
<svg width="1344pt" height="284pt"
 viewBox="0.00 0.00 1344.00 284.00" xmlns="http://www.w3.org/2000/svg" xmlns:xlink="http://www.w3.org/1999/xlink">
<g id="graph0" class="graph" transform="scale(1 1) rotate(0) translate(4 280)">
<title>dependencies</title>
<polygon fill="#ffffff" stroke="transparent" points="-4,4 -4,-280 1340,-280 1340,4 -4,4"/>
<text text-anchor="start" x="647.0091" y="-42.4" font-family="sans-serif" font-weight="bold" font-size="14.00" fill="#000000">Legend</text>
<polygon fill="#ffffb3" stroke="transparent" points="434,-10 434,-30 454,-30 454,-10 434,-10"/>
<text text-anchor="start" x="457.629" y="-15.4" font-family="sans-serif" font-size="14.00" fill="#000000"> &#160;Declarations</text>
<polygon fill="#8dd3c7" stroke="transparent" points="547,-10 547,-30 567,-30 567,-10 547,-10"/>
<text text-anchor="start" x="570.7251" y="-15.4" font-family="sans-serif" font-size="14.00" fill="#000000"> &#160;Module</text>
<polygon fill="#80b1d3" stroke="transparent" points="633,-10 633,-30 653,-30 653,-10 633,-10"/>
<text text-anchor="start" x="656.7812" y="-15.4" font-family="sans-serif" font-size="14.00" fill="#000000"> &#160;Bootstrap</text>
<polygon fill="#fdb462" stroke="transparent" points="730,-10 730,-30 750,-30 750,-10 730,-10"/>
<text text-anchor="start" x="753.6732" y="-15.4" font-family="sans-serif" font-size="14.00" fill="#000000"> &#160;Providers</text>
<polygon fill="#fb8072" stroke="transparent" points="826,-10 826,-30 846,-30 846,-10 826,-10"/>
<text text-anchor="start" x="849.7258" y="-15.4" font-family="sans-serif" font-size="14.00" fill="#000000"> &#160;Exports</text>
<g id="clust1" class="cluster">
<title>cluster_AppModule</title>
<polygon fill="none" stroke="#000000" stroke-dasharray="1,5" points="8,-70 8,-268 1328,-268 1328,-70 8,-70"/>
</g>
<g id="clust2" class="cluster">
<title>cluster_AppModule_declarations</title>
<polygon fill="none" stroke="#000000" points="168,-78 168,-130 1320,-130 1320,-78 168,-78"/>
</g>
<g id="clust11" class="cluster">
<title>cluster_AppModule_imports</title>
<polygon fill="none" stroke="#000000" points="16,-78 16,-130 160,-130 160,-78 16,-78"/>
</g>
<g id="clust13" class="cluster">
<title>cluster_AppModule_bootstrap</title>
<polygon fill="none" stroke="#000000" points="574,-208 574,-260 698,-260 698,-208 574,-208"/>
</g>
<!-- AddProjectComponent -->
<g id="node1" class="node">
<title>AddProjectComponent</title>
<polygon fill="#ffffb3" stroke="#000000" points="1311.5926,-122 1166.4074,-122 1166.4074,-86 1311.5926,-86 1311.5926,-122"/>
<text text-anchor="middle" x="1239" y="-99.8" font-family="Times,serif" font-size="14.00" fill="#000000">AddProjectComponent</text>
</g>
<!-- AppModule -->
<g id="node9" class="node">
<title>AppModule</title>
<polygon fill="#8dd3c7" stroke="#000000" points="677.6571,-187 674.6571,-191 653.6571,-191 650.6571,-187 594.3429,-187 594.3429,-151 677.6571,-151 677.6571,-187"/>
<text text-anchor="middle" x="636" y="-164.8" font-family="Times,serif" font-size="14.00" fill="#000000">AppModule</text>
</g>
<!-- AddProjectComponent&#45;&gt;AppModule -->
<g id="edge1" class="edge">
<title>AddProjectComponent&#45;&gt;AppModule</title>
<path fill="none" stroke="#000000" d="M1239,-122.0109C1239,-144.4852 1239,-180 1239,-180 1239,-180 687.923,-180 687.923,-180"/>
<polygon fill="#000000" stroke="#000000" points="687.9231,-176.5001 677.923,-180 687.923,-183.5001 687.9231,-176.5001"/>
</g>
<!-- AddUserComponent -->
<g id="node2" class="node">
<title>AddUserComponent</title>
<polygon fill="#ffffb3" stroke="#000000" points="1148.8655,-122 1017.1345,-122 1017.1345,-86 1148.8655,-86 1148.8655,-122"/>
<text text-anchor="middle" x="1083" y="-99.8" font-family="Times,serif" font-size="14.00" fill="#000000">AddUserComponent</text>
</g>
<!-- AddUserComponent&#45;&gt;AppModule -->
<g id="edge2" class="edge">
<title>AddUserComponent&#45;&gt;AppModule</title>
<path fill="none" stroke="#000000" d="M1083,-122.1289C1083,-142.5724 1083,-173 1083,-173 1083,-173 688.0527,-173 688.0527,-173"/>
<polygon fill="#000000" stroke="#000000" points="688.0527,-169.5001 678.0527,-173 688.0526,-176.5001 688.0527,-169.5001"/>
</g>
<!-- AppComponent -->
<g id="node3" class="node">
<title>AppComponent</title>
<polygon fill="#ffffb3" stroke="#000000" points="998.9399,-122 893.0601,-122 893.0601,-86 998.9399,-86 998.9399,-122"/>
<text text-anchor="middle" x="946" y="-99.8" font-family="Times,serif" font-size="14.00" fill="#000000">AppComponent</text>
</g>
<!-- AppComponent&#45;&gt;AppModule -->
<g id="edge3" class="edge">
<title>AppComponent&#45;&gt;AppModule</title>
<path fill="none" stroke="#000000" d="M946,-122.2667C946,-140.5552 946,-166 946,-166 946,-166 687.808,-166 687.808,-166"/>
<polygon fill="#000000" stroke="#000000" points="687.808,-162.5001 677.808,-166 687.8079,-169.5001 687.808,-162.5001"/>
</g>
<!-- FilterPipePipe -->
<g id="node4" class="node">
<title>FilterPipePipe</title>
<polygon fill="#ffffb3" stroke="#000000" points="875.1053,-122 778.8947,-122 778.8947,-86 875.1053,-86 875.1053,-122"/>
<text text-anchor="middle" x="827" y="-99.8" font-family="Times,serif" font-size="14.00" fill="#000000">FilterPipePipe</text>
</g>
<!-- FilterPipePipe&#45;&gt;AppModule -->
<g id="edge4" class="edge">
<title>FilterPipePipe&#45;&gt;AppModule</title>
<path fill="none" stroke="#000000" d="M827,-122.0091C827,-138.0494 827,-159 827,-159 827,-159 687.9158,-159 687.9158,-159"/>
<polygon fill="#000000" stroke="#000000" points="687.9158,-155.5001 677.9158,-159 687.9157,-162.5001 687.9158,-155.5001"/>
</g>
<!-- ProjectFilterPipe -->
<g id="node5" class="node">
<title>ProjectFilterPipe</title>
<polygon fill="#ffffb3" stroke="#000000" points="761.3711,-122 650.6289,-122 650.6289,-86 761.3711,-86 761.3711,-122"/>
<text text-anchor="middle" x="706" y="-99.8" font-family="Times,serif" font-size="14.00" fill="#000000">ProjectFilterPipe</text>
</g>
<!-- ProjectFilterPipe&#45;&gt;AppModule -->
<g id="edge5" class="edge">
<title>ProjectFilterPipe&#45;&gt;AppModule</title>
<path fill="none" stroke="#000000" d="M664.1963,-122.1061C664.1963,-122.1061 664.1963,-140.991 664.1963,-140.991"/>
<polygon fill="#000000" stroke="#000000" points="660.6964,-140.9909 664.1963,-150.991 667.6964,-140.991 660.6964,-140.9909"/>
</g>
<!-- TaskAddComponent -->
<g id="node6" class="node">
<title>TaskAddComponent</title>
<polygon fill="#ffffb3" stroke="#000000" points="632.1513,-122 499.8487,-122 499.8487,-86 632.1513,-86 632.1513,-122"/>
<text text-anchor="middle" x="566" y="-99.8" font-family="Times,serif" font-size="14.00" fill="#000000">TaskAddComponent</text>
</g>
<!-- TaskAddComponent&#45;&gt;AppModule -->
<g id="edge6" class="edge">
<title>TaskAddComponent&#45;&gt;AppModule</title>
<path fill="none" stroke="#000000" d="M613.2486,-122.1061C613.2486,-122.1061 613.2486,-140.991 613.2486,-140.991"/>
<polygon fill="#000000" stroke="#000000" points="609.7487,-140.9909 613.2486,-150.991 616.7487,-140.991 609.7487,-140.9909"/>
</g>
<!-- TaskUpdateComponent -->
<g id="node7" class="node">
<title>TaskUpdateComponent</title>
<polygon fill="#ffffb3" stroke="#000000" points="481.4706,-122 332.5294,-122 332.5294,-86 481.4706,-86 481.4706,-122"/>
<text text-anchor="middle" x="407" y="-99.8" font-family="Times,serif" font-size="14.00" fill="#000000">TaskUpdateComponent</text>
</g>
<!-- TaskUpdateComponent&#45;&gt;AppModule -->
<g id="edge7" class="edge">
<title>TaskUpdateComponent&#45;&gt;AppModule</title>
<path fill="none" stroke="#000000" d="M407,-122.0091C407,-138.0494 407,-159 407,-159 407,-159 584.2641,-159 584.2641,-159"/>
<polygon fill="#000000" stroke="#000000" points="584.2642,-162.5001 594.2641,-159 584.2641,-155.5001 584.2642,-162.5001"/>
</g>
<!-- TaskViewComponent -->
<g id="node8" class="node">
<title>TaskViewComponent</title>
<polygon fill="#ffffb3" stroke="#000000" points="314.3627,-122 175.6373,-122 175.6373,-86 314.3627,-86 314.3627,-122"/>
<text text-anchor="middle" x="245" y="-99.8" font-family="Times,serif" font-size="14.00" fill="#000000">TaskViewComponent</text>
</g>
<!-- TaskViewComponent&#45;&gt;AppModule -->
<g id="edge8" class="edge">
<title>TaskViewComponent&#45;&gt;AppModule</title>
<path fill="none" stroke="#000000" d="M245,-122.2667C245,-140.5552 245,-166 245,-166 245,-166 584.1562,-166 584.1562,-166"/>
<polygon fill="#000000" stroke="#000000" points="584.1562,-169.5001 594.1562,-166 584.1561,-162.5001 584.1562,-169.5001"/>
</g>
<!-- AppComponent  -->
<g id="node11" class="node">
<title>AppComponent </title>
<polygon fill="#80b1d3" stroke="#000000" points="690.439,-252 581.561,-252 581.561,-216 690.439,-216 690.439,-252"/>
<text text-anchor="middle" x="636" y="-229.8" font-family="Times,serif" font-size="14.00" fill="#000000">AppComponent </text>
</g>
<!-- AppModule&#45;&gt;AppComponent  -->
<g id="edge11" class="edge">
<title>AppModule&#45;&gt;AppComponent </title>
<path fill="none" stroke="#000000" stroke-dasharray="1,5" d="M636,-187.1061C636,-187.1061 636,-205.991 636,-205.991"/>
<polygon fill="#000000" stroke="#000000" points="632.5001,-205.9909 636,-215.991 639.5001,-205.991 632.5001,-205.9909"/>
</g>
<!-- AppRoutingModule -->
<g id="node10" class="node">
<title>AppRoutingModule</title>
<polygon fill="#8dd3c7" stroke="#000000" points="152.2744,-122 149.2744,-126 128.2744,-126 125.2744,-122 23.7256,-122 23.7256,-86 152.2744,-86 152.2744,-122"/>
<text text-anchor="middle" x="88" y="-99.8" font-family="Times,serif" font-size="14.00" fill="#000000">AppRoutingModule</text>
</g>
<!-- AppRoutingModule&#45;&gt;AppModule -->
<g id="edge9" class="edge">
<title>AppRoutingModule&#45;&gt;AppModule</title>
<path fill="none" stroke="#000000" d="M109.4624,-122.1289C109.4624,-142.5724 109.4624,-173 109.4624,-173 109.4624,-173 584.2434,-173 584.2434,-173"/>
<polygon fill="#000000" stroke="#000000" points="584.2434,-176.5001 594.2434,-173 584.2433,-169.5001 584.2434,-176.5001"/>
</g>
<!-- AppRoutingModule&#45;&gt;AppModule -->
<g id="edge10" class="edge">
<title>AppRoutingModule&#45;&gt;AppModule</title>
<path fill="none" stroke="#000000" d="M66.5376,-122.0109C66.5376,-144.4852 66.5376,-180 66.5376,-180 66.5376,-180 584.1261,-180 584.1261,-180"/>
<polygon fill="#000000" stroke="#000000" points="584.1261,-183.5001 594.1261,-180 584.126,-176.5001 584.1261,-183.5001"/>
</g>
</g>
</svg>
